<?xml version="1.0" encoding="UTF-8"?>
<svg width="16px" height="16px" viewBox="0 0 16 16" version="1.1" xmlns="http://www.w3.org/2000/svg" xmlns:xlink="http://www.w3.org/1999/xlink">
    <title>Linkedin</title>
    <defs>
        <polygon id="path-1" points="0 0 13.3333333 0 13.3333333 9.33333333 0 9.33333333"></polygon>
    </defs>
    <g id="Page-1" stroke="none" stroke-width="1" fill="none" fill-rule="evenodd">
        <g id="03_510-(375)-New" transform="translate(-347.000000, -673.000000)">
            <g id="00_Header" transform="translate(335.000000, 0.000000)">
                <g id="Kontakt/sns" transform="translate(12.000000, 581.000000)">
                    <g id="Linkedin" transform="translate(0.000000, 92.000000)">
                        <g id="Group-4-Copy-2">
                            <rect id="Rectangle" x="0" y="0" width="16" height="16"></rect>
                            <g id="Group-3" transform="translate(1.333333, 3.333333)">
                                <mask id="mask-2" fill="white">
                                    <use xlink:href="#path-1"></use>
                                </mask>
                                <g id="Clip-2"></g>
                            </g>
                        </g>
                        <path d="M4.66666667,3.66589526 C4.66666667,4.22439359 4.28108489,4.66666667 3.66161794,4.66666667 L3.64987672,4.66666667 C3.05342257,4.66666667 2.66666667,4.2259364 2.66666667,3.66743807 C2.66666667,3.09814005 3.06469414,2.66666667 3.67312434,2.66666667 C4.28108489,2.66666667 4.65469062,3.09711151 4.66666667,3.66589526 Z M11.0054645,5.33333333 C12.6824716,5.33333333 14,6.37794371 14,8.62787375 L14,12.6666667 L11.3245902,12.6666667 L11.3245902,8.90814298 C11.3245902,7.92412259 10.9059269,7.25244849 9.98554014,7.25244849 C9.28171501,7.25244849 8.89029004,7.70573941 8.70802858,8.14250578 C8.63976461,8.29932694 8.65018916,8.51771013 8.65018916,8.73609332 L8.65018916,12.6666667 L6,12.6666667 C6,12.6666667 6.03430013,6.00824754 6,5.40299563 L8.65052543,5.40299563 L8.65052543,6.54318915 C8.80722993,6.04453674 9.65430853,5.33333333 11.0058008,5.33333333 L11.0054645,5.33333333 Z M2.66666667,12.6666667 L4.66666667,12.6666667 L4.66666667,5.33333333 L2.66666667,5.33333333 L2.66666667,12.6666667 Z" id="Fill-1" fill="#EAF2EF"></path>
                    </g>
                </g>
            </g>
        </g>
    </g>
</svg>