<?xml version="1.0" encoding="UTF-8"?>
<svg width="16px" height="16px" viewBox="0 0 16 16" version="1.1" xmlns="http://www.w3.org/2000/svg" xmlns:xlink="http://www.w3.org/1999/xlink">
    <title>Insta</title>
    <defs>
        <polygon id="path-1" points="0 0 13.3333333 0 13.3333333 9.33333333 0 9.33333333"></polygon>
    </defs>
    <g id="Page-1" stroke="none" stroke-width="1" fill="none" fill-rule="evenodd">
        <g id="03_510-(375)-New" transform="translate(-347.000000, -581.000000)">
            <g id="00_Header" transform="translate(335.000000, 0.000000)">
                <g id="Insta" transform="translate(12.000000, 581.000000)">
                    <g id="Group-4-Copy">
                        <rect id="Rectangle" x="0" y="0" width="16" height="16"></rect>
                        <g id="Group-3" transform="translate(1.333333, 3.333333)">
                            <mask id="mask-2" fill="white">
                                <use xlink:href="#path-1"></use>
                            </mask>
                            <g id="Clip-2"></g>
                        </g>
                    </g>
                    <g id="Group-7" transform="translate(1.333333, 1.333333)" fill="#D8D8D8">
                        <path d="M0,9.48574281 C0,11.6105933 1.71362527,13.3333333 3.82723342,13.3333333 L9.50609991,13.3333333 C11.6200505,13.3333333 13.3333333,11.6105933 13.3333333,9.48574281 L13.3333333,3.84759052 C13.3333333,1.72308434 11.6197081,0 9.50609991,0 L3.82723342,0 C1.71328282,0 0,1.72274007 0,3.84759052 L0,9.48574281 Z M3.82723342,1.24110271 L9.50609991,1.24110271 C10.9375455,1.24110271 12.0984547,2.4081868 12.0984547,3.84759052 L12.0984547,9.48574281 C12.0984547,10.9251465 10.9378879,12.0918864 9.50609991,12.0918864 L3.82723342,12.0918864 C2.3954454,12.0915421 1.23522109,10.9251465 1.23487864,9.48574281 L1.23487864,3.84759052 C1.23487864,2.4081868 2.3954454,1.24144698 3.82723342,1.24144698 L3.82723342,1.24110271 Z" id="Fill-1"></path>
                        <path d="M4.50580536,6.6669919 C4.50548021,5.47370475 5.47272905,4.50580536 6.66634143,4.50580536 C7.85962858,4.50548021 8.82720265,5.47272905 8.82752789,6.6660162 L8.82752789,6.6669919 C8.82720265,7.86027905 7.85962858,8.82752789 6.66634143,8.82752789 C5.47305428,8.82720265 4.50613068,7.85995382 4.50580536,6.6669919 L4.50580536,6.6669919 Z M10,6.6669919 C10,4.82583667 8.50749667,3.33333333 6.66666667,3.33333333 C4.82583667,3.33333333 3.33333333,4.8261619 3.33333333,6.6669919 C3.33333333,8.5078219 4.82583667,10 6.6669919,10 C8.5078219,10 10,8.50749667 10,6.66666667 L10,6.6669919 Z" id="Fill-3"></path>
                        <path d="M10,2.66666667 C10.3681511,2.66666667 10.6666667,2.96518219 10.6666667,3.33333333 C10.6666667,3.70148448 10.3681511,4 10,4 C9.63184885,4 9.33333333,3.70148448 9.33333333,3.33333333 C9.33333333,2.96518219 9.63184885,2.66666667 10,2.66666667" id="Fill-5"></path>
                    </g>
                </g>
            </g>
        </g>
    </g>
</svg>