<?xml version="1.0" encoding="UTF-8"?>
<svg width="16px" height="16px" viewBox="0 0 16 16" version="1.1" xmlns="http://www.w3.org/2000/svg" xmlns:xlink="http://www.w3.org/1999/xlink">
    <title>YouTube</title>
    <defs>
        <polygon id="path-1" points="0 0 13.3333333 0 13.3333333 9.33333333 0 9.33333333"></polygon>
    </defs>
    <g id="Page-1" stroke="none" stroke-width="1" fill="none" fill-rule="evenodd">
        <g id="03_510-(375)-New" transform="translate(-347.000000, -719.000000)">
            <g id="00_Header" transform="translate(335.000000, 0.000000)">
                <g id="Kontakt/sns" transform="translate(12.000000, 581.000000)">
                    <g id="Group-4" transform="translate(0.000000, 138.000000)">
                        <rect id="Rectangle" x="0" y="0" width="16" height="16"></rect>
                        <g id="Group-3" transform="translate(1.333333, 3.333333)">
                            <mask id="mask-2" fill="white">
                                <use xlink:href="#path-1"></use>
                            </mask>
                            <g id="Clip-2"></g>
                            <path d="M5.303,6.63642473 L8.788,4.66666667 L5.303,2.6969086 L5.303,6.63642473 Z M13.0546667,1.45732527 C13.3333333,2.49731183 13.3333333,4.66666667 13.3333333,4.66666667 C13.3333333,4.66666667 13.3333333,6.83602151 13.0546667,7.87600806 C12.9013333,8.44959677 12.4496667,8.9015457 11.876,9.05477151 C10.836,9.33333333 6.66666667,9.33333333 6.66666667,9.33333333 C6.66666667,9.33333333 2.49733333,9.33333333 1.45733333,9.05477151 C0.883666667,8.9015457 0.432,8.44959677 0.278666667,7.87600806 C0,6.83602151 0,4.66666667 0,4.66666667 C0,4.66666667 0,2.49731183 0.278666667,1.45732527 C0.432,0.883736559 0.883666667,0.432123656 1.45733333,0.278561828 C2.49733333,0 6.66666667,0 6.66666667,0 C6.66666667,0 10.836,0 11.876,0.278561828 C12.4496667,0.432123656 12.9013333,0.883736559 13.0546667,1.45732527 L13.0546667,1.45732527 Z" id="Fill-1" fill="#D8D8D8" mask="url(#mask-2)"></path>
                        </g>
                    </g>
                </g>
            </g>
        </g>
    </g>
</svg>