<?xml version="1.0" encoding="UTF-8"?>
<svg width="16px" height="16px" viewBox="0 0 16 16" version="1.1" xmlns="http://www.w3.org/2000/svg" xmlns:xlink="http://www.w3.org/1999/xlink">
    <title>facebook</title>
    <defs>
        <polygon id="path-1" points="0 0 13.3333333 0 13.3333333 9.33333333 0 9.33333333"></polygon>
        <polygon id="path-3" points="0 0 13.3333333 0 13.3333333 13.3 0 13.3"></polygon>
    </defs>
    <g id="Page-1" stroke="none" stroke-width="1" fill="none" fill-rule="evenodd">
        <g id="03_510-(375)-New" transform="translate(-347.000000, -627.000000)">
            <g id="00_Header" transform="translate(335.000000, 0.000000)">
                <g id="Kontakt/sns" transform="translate(12.000000, 581.000000)">
                    <g id="facebook" transform="translate(0.000000, 46.000000)">
                        <g id="Group-4-Copy-3">
                            <rect id="Rectangle" x="0" y="0" width="16" height="16"></rect>
                            <g id="Group-3" transform="translate(1.333333, 3.333333)">
                                <mask id="mask-2" fill="white">
                                    <use xlink:href="#path-1"></use>
                                </mask>
                                <g id="Clip-2"></g>
                            </g>
                        </g>
                        <g id="Group-3" transform="translate(1.333333, 1.333333)">
                            <mask id="mask-4" fill="white">
                                <use xlink:href="#path-3"></use>
                            </mask>
                            <g id="Clip-2"></g>
                            <path d="M13.3333333,6.66666667 C13.3333333,2.98666667 10.3466667,-2.36847579e-15 6.66666667,-2.36847579e-15 C2.98666667,-2.36847579e-15 0,2.98666667 0,6.66666667 C0,9.89333333 2.29333333,12.58 5.33333333,13.2 L5.33333333,8.66666667 L4,8.66666667 L4,6.66666667 L5.33333333,6.66666667 L5.33333333,5 C5.33333333,3.71333333 6.38,2.66666667 7.66666667,2.66666667 L9.33333333,2.66666667 L9.33333333,4.66666667 L8,4.66666667 C7.63333333,4.66666667 7.33333333,4.96666667 7.33333333,5.33333333 L7.33333333,6.66666667 L9.33333333,6.66666667 L9.33333333,8.66666667 L7.33333333,8.66666667 L7.33333333,13.3 C10.7,12.9666667 13.3333333,10.1266667 13.3333333,6.66666667" id="Fill-1" fill="#D8D8D8" mask="url(#mask-4)"></path>
                        </g>
                    </g>
                </g>
            </g>
        </g>
    </g>
</svg>