<?xml version="1.0" encoding="utf-8"?>
<!-- Generator: Adobe Illustrator 26.0.1, SVG Export Plug-In . SVG Version: 6.00 Build 0)  -->
<svg version="1.1" id="Ebene_1" xmlns="http://www.w3.org/2000/svg" xmlns:xlink="http://www.w3.org/1999/xlink" x="0px" y="0px"
	 viewBox="0 0 32 32" style="enable-background:new 0 0 32 32;" xml:space="preserve">
<style type="text/css">
	.st0{fill:#EAF2EF;}
</style>
<path class="st0" d="M30,6.6c-1,0.5-2.1,0.8-3.3,0.9c1.2-0.7,2.1-1.8,2.6-3c-1.2,0.7-2.3,1.1-3.6,1.4C24.5,4.7,23,4,21.4,4
	c-3.1,0-5.7,2.5-5.7,5.5c0,0.4,0,0.9,0.1,1.2c-6,0-10.1-3.4-12.9-6.8C2.2,4.8,2,5.8,2,6.8c0,1.9,1.1,3.6,2.6,4.6
	c-0.9-0.1-1.9-0.3-2.6-0.7c0,0,0,0,0,0.1c0,2.7,2,5,4.6,5.4c-0.5,0.1-0.9,0.2-1.5,0.2c-0.3,0-0.7,0-1-0.1c0.7,2.3,4,4.9,6.5,4.9
	C8.5,22.7,6.7,24,3,24c-0.5,0-0.1,0-1,0c2.6,1.6,5.6,2,8.8,2c10.6,0,16.3-8.5,16.3-15.8c0-0.2,0-0.4,0-0.7C28.2,8.7,29.2,7.7,30,6.6
	"/>
</svg>
