<svg id="Ebene_1" data-name="Ebene 1" xmlns="http://www.w3.org/2000/svg" viewBox="0 0 48 48"><defs><style>.cls-1{fill:#dcddbf;}.cls-2{fill:#e0add4;}</style></defs><path class="cls-1" d="M31,29A13,13,0,0,1,44,16a12.78,12.78,0,0,1,2.71.29A24,24,0,0,0,26.32.11,4.51,4.51,0,0,1,27,2.46V21.54A4.46,4.46,0,0,1,22.54,26H3.46A4.43,4.43,0,0,1,0,24.33,23.85,23.85,0,0,0,5.3,39c2.47-.51,5.9-.71,8.7,1,5,3,9,1,16,4a22.47,22.47,0,0,1,3.62,2,24.37,24.37,0,0,0,6.81-4.5A13,13,0,0,1,31,29Z"/><path class="cls-2" d="M3.46,26H27V2.46A4.51,4.51,0,0,0,26.32.11C25.55,0,24.78,0,24,0A24,24,0,0,0,0,24.32,4.43,4.43,0,0,0,3.46,26Z"/><path class="cls-2" d="M46.71,16.29A12.78,12.78,0,0,0,44,16a13,13,0,0,0-3.57,25.49,23.9,23.9,0,0,0,6.28-25.2Z"/><path class="cls-2" d="M14,40c-2.8-1.68-6.23-1.48-8.7-1a24,24,0,0,0,28.32,7A22.47,22.47,0,0,0,30,44C23,41,19,43,14,40Z"/></svg>